<svg version="1.1" id="logo_w/b" xmlns="http://www.w3.org/2000/svg" x="0px" y="0px" viewBox="25 20 375 110" enable-background="new 25 20 375 110" preserveAspectRatio="none"><g><path fill="#000000" d="M106.5,95.7c0,12.1-8.8,18.4-18.4,18.4c-5.1,0-12.8-2.8-15.9-9.2c-3.2,6.3-10.8,9.2-15.9,9.2c-9.6,0-18.4-6.3-18.4-18.4V63.2c0-1.8,0.8-3.1,2.5-3.1c1.7,0,2.6,1.2,2.6,3.1v32.5c0,8.8,5.3,13.6,13.2,13.6c7.3,0,13.4-5.1,13.4-14V63.2c0-1.8,0.9-3.1,2.6-3.1c1.7,0,2.5,1.2,2.5,3.1v32.1c0,8.9,6.2,14,13.6,14c7.9,0,13.2-4.7,13.2-13.6V61.2h5.1V95.7z"></path><path fill="#000000" d="M127.5,113V66.2l-7.9,0.3c-1.2,0.1-2.3-1.1-2.3-2.7s1-2.6,2.3-2.6h13V113H127.5z M133.5,41.6c0,2.1-1.5,3.6-3.5,3.6c-1.9,0-3.3-1.5-3.3-3.6v-3.1c0-2.1,1.5-3.6,3.4-3.6c2,0,3.4,1.5,3.4,3.6V41.6z"></path><path fill="#000000" d="M166.1,113c-8.5,0-11.6-5.4-11.6-12V66.1h-8v-4.9h8V48.9l5.2-2.8v15.1H170c1.2,0,2.3,0.9,2.3,2.5s-1,2.4-2.3,2.4h-10.4V102c0,3.6,2.4,6,5.3,6h4.7c1.6,0,2.8,0.8,2.8,2.5c0,1.5-1.2,2.5-2.8,2.5H166.1z"></path><path fill="#000000" d="M203.4,116.5l45.1-88.3l4.1,1.9l-45.1,88.3L203.4,116.5z"></path><path fill="#000000" d="M326.1,95.3c0,12.2-9,18.9-18.3,18.9c-6.7,0-10.6-2.9-13-5.9c-0.3-0.5-0.7-1-1.4-1c-0.7,0-1,0.6-1,1.5v2.9c0,0.9-0.8,1.4-1.6,1.4c-0.9,0-1.7-0.5-1.7-1.4V38.9l-6.6,0.2c-1.2,0-2.3-1-2.3-2.6s1-2.6,2.3-2.6h11.6v32.5c3.1-4.2,7.8-6.3,13.3-6.3c9.7,0,18.5,6.9,18.5,18.8V95.3z M321,78.9c0-8.6-6.1-13.9-13.4-13.9c-7.3,0-13.3,5.3-13.3,13.9v15.5c0,9,5.8,14.9,13.1,14.9S321,104,321,95.4V78.9z"></path><path fill="#000000" d="M346.4,113V66.2l-7.9,0.3c-1.2,0.1-2.3-1.1-2.3-2.7s1-2.6,2.3-2.6h13V113H346.4z M352.4,41.6c0,2.1-1.5,3.6-3.5,3.6c-1.9,0-3.3-1.5-3.3-3.6v-3.1c0-2.1,1.5-3.6,3.4-3.6c2,0,3.4,1.5,3.4,3.6V41.6z"></path><path fill="#000000" d="M384.9,113c-8.5,0-11.6-5.4-11.6-12V66.1h-8v-4.9h8V48.9l5.2-2.8v15.1h10.4c1.2,0,2.3,0.9,2.3,2.5s-1,2.4-2.3,2.4h-10.4V102c0,3.6,2.4,6,5.3,6h4.7c1.6,0,2.8,0.8,2.8,2.5c0,1.5-1.2,2.5-2.8,2.5H384.9z"></path></g></svg>